# xmcd
#
# Track frame offsets: 
#        150
#        15005
#        37299
#        50437
#        68077
#        87204
#        103826
#        116692
#        133897
#        146616
#        162371
#        179256
#
# Disc length: 2616 seconds
#
# Revision: 0
# Processed by: cddbd v1.5.2PL0 Copyright (c) Steve Scherf et al.
# Submitted via: ExactAudioCopy v0.99pb5
#
DISCID=a40a360c
DTITLE=Joe Fournier - Dirt Road Joyride
DYEAR=2008
DGENRE=Country Rock
TTITLE0=The Wreck Of Tammy Whelan
TTITLE1=Real Cool Car
TTITLE2=I Drive A Wreck
TTITLE3=Bad Record Collection
TTITLE4=Gooned Up
TTITLE5=Stone Cold Hearts
TTITLE6=You're Still Everywhere
TTITLE7=Juanita Dog Walk
TTITLE8=Thumbful
TTITLE9=Sang Like A Bird
TTITLE10=She's My Speed
TTITLE11=Bigger Than Actual Size
EXTD=
EXTT0=
EXTT1=
EXTT2=
EXTT3=
EXTT4=
EXTT5=
EXTT6=
EXTT7=
EXTT8=
EXTT9=
EXTT10=
EXTT11=
PLAYORDER=
